<svg xmlns="http://www.w3.org/2000/svg" width="169" height="169" fill="none"><rect width="62.347" height="167" x="1" y="115.674" fill="#151516" stroke="#6556BF" stroke-width="2" rx="5" transform="rotate(-90 1 115.674)"/><path fill="#151516" d="M52.327 7.63A7.63 7.63 0 0 1 59.957 0h49.087a7.63 7.63 0 0 1 7.63 7.63V161.37a7.63 7.63 0 0 1-7.63 7.629H59.956a7.63 7.63 0 0 1-7.63-7.629V7.629Z"/><path fill="#6556BF" fill-rule="evenodd" d="M109.044 2.543H59.956A5.086 5.086 0 0 0 54.87 7.63v153.742a5.086 5.086 0 0 0 5.086 5.086h49.088a5.087 5.087 0 0 0 5.087-5.086V7.629a5.087 5.087 0 0 0-5.087-5.086ZM59.956 0a7.63 7.63 0 0 0-7.63 7.63V161.37a7.63 7.63 0 0 0 7.63 7.629h49.088a7.63 7.63 0 0 0 7.63-7.629V7.629A7.63 7.63 0 0 0 109.044 0H59.956Z" clip-rule="evenodd"/><rect width="57.764" height="158.217" x="3.543" y="113.633" fill="#151516" stroke="url(#a)" stroke-width="2" rx="5" transform="rotate(-90 3.543 113.633)"/><defs><linearGradient id="a" x1="30.207" x2="30.189" y1="114.633" y2="274.85" gradientUnits="userSpaceOnUse"><stop stop-color="#151516"/><stop offset=".969" stop-color="#151516" stop-opacity=".83"/></linearGradient></defs></svg>