<svg xmlns="http://www.w3.org/2000/svg" width="21" height="18" fill="none"><path fill="#F5F5F7" fill-rule="evenodd" d="M13.065 12.964c-1.306.832-2.903 1.321-4.63 1.321-4.41 0-7.985-3.198-7.985-7.142C.45 3.198 4.025 0 8.436 0c4.41 0 7.986 3.198 7.986 7.143 0 1.543-.547 2.972-1.478 4.14l5.247 4.693c.517.462.513 1.202 0 1.66l-.022.02a1.427 1.427 0 0 1-1.857 0l-5.247-4.692Zm-4.63-.36c3.374 0 6.108-2.445 6.108-5.461 0-3.017-2.734-5.462-6.107-5.462S2.329 4.126 2.329 7.143c0 3.016 2.734 5.462 6.107 5.462Z" clip-rule="evenodd"/></svg>