<svg xmlns="http://www.w3.org/2000/svg" xml:space="preserve" style="fill-rule:evenodd;clip-rule:evenodd;stroke-linejoin:round;stroke-miterlimit:2" viewBox="0 0 24 24"><path fill="#ffffff" d="M8.261 3.75H7.5a.75.75 0 0 0-.75.75V7c0 .414.336.75.75.75h9a.75.75 0 0 0 .75-.75V4.5a.75.75 0 0 0-.75-.75h-.761A2.751 2.751 0 0 0 13 1.25h-2a2.751 2.751 0 0 0-2.739 2.5Z"/><path fill="#ffffff" d="M5.75 4.75H5.5A1.75 1.75 0 0 0 3.75 6.5V21c0 .967.784 1.75 1.75 1.75h13A1.75 1.75 0 0 0 20.25 21V6.5a1.75 1.75 0 0 0-1.75-1.75h-.25V7a1.75 1.75 0 0 1-1.75 1.75h-9A1.75 1.75 0 0 1 5.75 7V4.75Zm2.25 14h8a.75.75 0 0 0 0-1.5H8a.75.75 0 0 0 0 1.5Zm0-3.5h8a.75.75 0 0 0 0-1.5H8a.75.75 0 0 0 0 1.5Zm1.5-3.5h5a.75.75 0 0 0 0-1.5h-5a.75.75 0 0 0 0 1.5Z"/></svg>