<svg xmlns="http://www.w3.org/2000/svg" width="16" height="14" fill="none"><path fill="#F5F5F7" fill-rule="evenodd" d="M1 3.875C.377 3.875-.125 4.378-.125 5S.377 6.125 1 6.125 2.125 5.622 2.125 5 1.623 3.875 1 3.875Zm0-4.5C.377-.625-.125-.123-.125.5S.377 1.625 1 1.625 2.125 1.123 2.125.5 1.623-.625 1-.625Zm0 9c-.623 0-1.125.51-1.125 1.125S.385 10.625 1 10.625s1.125-.51 1.125-1.125S1.623 8.375 1 8.375Zm3 1.875h9c.412 0 .75-.338.75-.75a.752.752 0 0 0-.75-.75H4a.752.752 0 0 0-.75.75c0 .412.337.75.75.75Zm0-4.5h9c.412 0 .75-.338.75-.75a.752.752 0 0 0-.75-.75H4a.752.752 0 0 0-.75.75c0 .412.337.75.75.75ZM3.25.5c0 .412.337.75.75.75h9c.412 0 .75-.338.75-.75A.752.752 0 0 0 13-.25H4a.752.752 0 0 0-.75.75Z" clip-rule="evenodd"/></svg>