<svg xmlns="http://www.w3.org/2000/svg" width="18" height="18" fill="none"><path fill="#fff" d="M6.23 8.308H3.809c-.289 0-.534-.101-.736-.303a1.002 1.002 0 0 1-.303-.736v-.346c0-.764.27-1.417.811-1.958a2.669 2.669 0 0 1 1.958-.811h.693c.187 0 .35-.069.486-.205a.665.665 0 0 0 .206-.487V2.077a.666.666 0 0 0-.206-.487.666.666 0 0 0-.486-.205h-.693c-.75 0-1.465.146-2.147.438a5.581 5.581 0 0 0-1.768 1.184A5.577 5.577 0 0 0 .438 4.776 5.395 5.395 0 0 0 0 6.923v7.615c0 .578.202 1.068.606 1.472.404.403.894.605 1.471.605h4.154c.577 0 1.067-.201 1.471-.605.404-.404.606-.894.606-1.472v-4.153c0-.577-.202-1.067-.606-1.472a2.003 2.003 0 0 0-1.471-.605ZM17.394 8.913a2.003 2.003 0 0 0-1.47-.605H13.5a1 1 0 0 1-.735-.303 1.001 1.001 0 0 1-.303-.736v-.346c0-.764.27-1.417.811-1.958a2.668 2.668 0 0 1 1.958-.811h.692c.188 0 .35-.069.487-.205a.666.666 0 0 0 .206-.487V2.077a.666.666 0 0 0-.206-.487.666.666 0 0 0-.487-.205h-.692c-.75 0-1.466.146-2.147.438a5.581 5.581 0 0 0-1.769 1.184 5.575 5.575 0 0 0-1.184 1.769 5.397 5.397 0 0 0-.439 2.147v7.615c0 .578.202 1.068.606 1.472.404.403.894.605 1.471.605h4.154c.577 0 1.067-.201 1.471-.605.404-.404.606-.894.606-1.472v-4.153c0-.577-.202-1.067-.606-1.472Z"/></svg>